<?xml version="1.0" standalone="no"?>
<!DOCTYPE svg PUBLIC "-//W3C//DTD SVG 20010904//EN"
 "http://www.w3.org/TR/2001/REC-SVG-20010904/DTD/svg10.dtd">
<svg version="1.0" xmlns="http://www.w3.org/2000/svg"
 width="904.000000pt" height="904.000000pt" viewBox="0 0 904.000000 904.000000"
 preserveAspectRatio="xMidYMid meet">
<metadata>
Created by potrace 1.11, written by Peter Selinger 2001-2013
</metadata>
<g transform="translate(0.000000,904.000000) scale(0.100000,-0.100000)"
fill="#000000" stroke="none">
<path d="M4188 9030 c-879 -65 -1734 -392 -2431 -931 -716 -554 -1248 -1307
-1533 -2169 -210 -634 -274 -1334 -184 -2018 217 -1642 1340 -3048 2900 -3630
364 -136 776 -230 1165 -266 186 -17 566 -20 751 -6 963 73 1834 430 2589
1059 116 96 430 410 526 526 628 753 988 1632 1059 2585 14 188 11 567 -6 747
-100 1082 -575 2080 -1348 2830 -768 746 -1744 1187 -2811 1272 -137 10 -535
11 -677 1z m-2065 -3344 c117 -22 220 -62 273 -109 91 -80 144 -246 147 -464
l2 -118 -195 0 -195 0 -6 100 c-15 232 -73 268 -434 267 -201 -1 -290 -13
-365 -50 -107 -53 -121 -116 -125 -572 -4 -409 8 -572 52 -683 30 -75 141
-113 358 -123 145 -7 327 8 398 32 95 32 139 125 138 290 l0 94 199 0 200 0 0
-67 c0 -101 -18 -271 -35 -338 -57 -219 -145 -285 -445 -336 -87 -15 -554 -20
-660 -8 -205 24 -365 79 -438 149 -89 86 -136 271 -163 635 -17 242 -15 649 5
767 40 243 113 375 245 443 99 50 259 87 456 105 147 13 483 5 588 -14z m1797
12 c210 -21 372 -75 459 -153 118 -107 179 -372 185 -803 6 -437 -31 -728
-113 -891 -71 -139 -216 -210 -504 -245 -153 -19 -578 -14 -702 7 -285 51
-404 144 -468 367 -94 326 -80 1116 25 1399 31 82 81 155 130 188 95 66 276
115 478 132 133 11 397 10 510 -1z m2225 -32 c277 -67 375 -224 375 -602 0
-231 -31 -376 -96 -452 -39 -47 -130 -95 -209 -113 -30 -7 -55 -15 -55 -18 0
-4 27 -12 59 -18 151 -28 236 -114 270 -271 7 -32 11 -160 11 -322 l0 -270
-197 3 -198 2 -2 225 c-2 124 -8 248 -13 275 -19 88 -82 158 -169 187 -55 18
-691 24 -691 6 0 -7 0 -161 -1 -341 0 -181 -3 -336 -6 -344 -5 -12 -37 -14
-199 -12 l-194 2 0 1044 0 1044 623 -4 c541 -3 631 -6 692 -21z m2063 -143
l-3 -168 -507 0 c-501 0 -508 0 -508 -20 -1 -11 -2 -131 -3 -267 l-2 -248 488
0 488 0 -3 -146 -3 -146 -480 -2 -480 -1 -5 -293 -5 -292 518 0 517 0 0 -169
0 -170 -715 -1 -715 -1 0 1046 0 1045 710 0 710 0 -2 -167z"/>
<path d="M3463 5358 c-96 -8 -195 -31 -238 -56 -40 -24 -61 -69 -82 -182 -26
-139 -26 -848 -1 -959 33 -142 68 -177 205 -206 99 -22 348 -30 475 -16 264
29 301 69 328 351 12 120 15 586 5 693 -25 263 -47 311 -164 348 -63 20 -95
22 -376 32 -38 1 -107 -1 -152 -5z"/>
<path d="M5230 5355 c-1 0 -1 -690 0 -704 0 -11 58 -12 338 -8 359 4 405 10
466 58 64 50 92 172 83 359 -9 190 -41 251 -148 280 -29 8 -377 15 -739 15z"/>
</g>
</svg>
